<svg width="222" height="63" viewBox="0 0 222 63" fill="none" xmlns="http://www.w3.org/2000/svg">
<path d="M215.952 29.3939C215.931 29.0648 215.891 28.7415 215.84 28.4354C215.787 28.1167 215.724 27.8176 215.658 27.5518C215.564 27.1617 215.467 26.843 215.402 26.6405C215.362 26.5209 215.335 26.4415 215.323 26.4139C215.322 26.4104 215.321 26.4058 215.32 26.4024C213.562 22.5824 210.049 20.6161 205.841 21.2386C195.585 22.755 195.281 39.0472 205.282 40.7535C207.671 41.1608 212.703 40.956 214.15 38.6365C214.635 37.8587 214.542 36.8381 213.673 36.3894C212.512 35.7876 211.91 36.707 210.911 37.1235C209.169 37.8495 206.579 37.9645 204.865 37.1453C203.197 36.3491 200.255 33.1091 203.209 32.0678C205.978 32.0068 208.752 32.0517 211.523 32.0402C211.648 32.0391 211.929 32.0471 212.287 32.0563C213.424 32.0885 215.33 32.1449 215.435 32.0402C215.437 32.0379 215.439 32.0333 215.442 32.0275C215.599 31.7848 215.714 31.5155 215.795 31.2279C215.881 30.9276 215.931 30.6089 215.953 30.2844C215.972 29.9899 215.97 29.6896 215.952 29.3939ZM211.811 29.1638H201.973C201.843 25.9007 205.028 23.7066 208.099 24.3601C209.372 24.6305 210.876 25.6844 211.47 26.858C211.612 27.1387 212.31 29.1638 211.811 29.1638Z" fill="white"/>
<path d="M118.046 14.8883C117.965 14.5938 117.789 14.2705 117.459 14.2083C116.842 14.0944 114.702 14.1428 114.005 14.2003C113.364 14.2544 113.311 14.3073 113.258 14.9482C113.111 16.7005 113.456 18.7589 113.265 20.479C113.246 20.6562 113.12 21.0842 113.003 21.1935C112.654 21.5203 111.998 21.2257 111.599 21.2188C105.044 21.1084 99.6687 23.0344 99.335 30.481C98.8794 40.6648 107.847 42.4309 115.957 40.0837C116.885 39.8156 118.121 39.6373 118.099 38.4292L118.046 14.8883ZM112.12 36.8218C111.066 37.0738 108.624 36.8955 107.595 36.4997C102.351 34.4827 103.201 26.1467 108.748 25.3954C109.366 25.3126 111.592 25.2654 112.146 25.3908C112.549 25.4817 113.156 26.2043 113.236 26.6001L113.252 35.4239C113.173 36.0049 112.701 36.6838 112.12 36.8218Z" fill="white"/>
<path d="M36.9037 34.7256C38.0003 33.7326 39.1451 35.0926 40.1576 35.592C42.1297 36.5665 44.8117 37.1475 46.9368 36.4158C50.0882 35.3296 50.2999 31.8273 47.1646 30.5409C42.7429 28.7276 36.5862 28.7518 36.1754 22.4305C35.6128 13.7597 45.2006 13.3294 51.3056 15.4695C52.44 15.8664 54.1647 16.3796 53.6562 17.9386C53.5308 18.3229 52.8163 19.6242 52.562 19.9498C51.5012 21.3029 50.5496 20.0695 49.4842 19.592C47.6398 18.7659 45.0499 18.3965 43.1031 19.0052C40.9365 19.6829 39.7583 22.2705 42.0963 23.6432C44.0212 24.7719 47.4362 25.2459 49.6763 26.3033C53.6757 28.1903 55.0254 31.5764 53.7206 35.8382C51.7267 42.3493 42.7211 41.7291 37.7069 39.5384C36.554 39.0345 35.1859 38.4926 35.5104 36.9554C35.5725 36.6608 36.6656 34.9419 36.9037 34.7256Z" fill="white"/>
<path d="M77.5653 21.4824C77.9703 21.38 80.2864 21.3904 80.7512 21.4617C81.3519 21.5538 81.5739 21.8564 81.6268 22.4271C81.9432 25.8592 81.3564 29.7816 81.6165 33.2529C81.8685 36.6172 84.3813 37.166 87.3153 36.8714C88.551 36.7472 89.5681 35.7623 89.6797 34.5185C90.0203 30.7147 89.3219 26.3402 89.6694 22.5421C89.7258 21.9323 90.0169 21.5262 90.6497 21.4514C91.2422 21.3812 93.0682 21.3708 93.6377 21.4606C94.0151 21.5204 94.3016 21.8115 94.4558 22.1383V38.8343C94.2625 39.466 93.1062 39.7076 92.524 39.894C86.9437 41.6878 77.5365 42.5012 76.9049 34.5116C76.5942 30.587 77.1338 26.2803 76.9014 22.3155C76.8738 21.9599 77.242 21.5653 77.5653 21.4836V21.4824Z" fill="white"/>
<path d="M183.223 27.7199C182.782 22.7885 179.132 20.7842 174.451 21.1432C173.223 21.2375 168.695 22.2466 168.205 23.4121C167.919 24.0933 168.393 25.6742 169.177 25.887C170.054 26.1241 171.213 25.1242 172.143 24.8193C173.991 24.2118 177.123 23.9564 178.619 25.4199C179.314 26.0987 180.482 28.4471 179.481 29.165C178.833 29.6287 178.165 29.1673 177.492 29.0787C173.387 28.5403 167.438 29.1581 166.996 34.4002C166.5 40.2946 172.652 41.3485 177.176 40.8986C178.296 40.787 182.169 40.0622 182.93 39.404C183.271 39.1106 183.308 38.2351 183.338 37.7403C183.516 34.8063 183.483 30.6343 183.223 27.7199ZM178.442 37.9071C176.198 37.5689 172.296 38.5446 170.998 36.1479C170.044 34.3864 171.322 32.3383 173.18 32.0702C174.477 31.8816 177.326 31.9874 178.663 32.1646C179.496 32.275 179.89 32.8929 179.889 33.7087C179.889 33.9802 179.764 34.2322 179.762 34.5083C179.747 35.7682 180.178 37.7058 178.442 37.9071Z" fill="white"/>
<path d="M156.385 14.3559C158.421 14.1856 160.594 14.3409 162.504 15.0715C163.202 15.3385 164.999 16.0771 165.023 16.9067C165.03 17.1288 164.528 18.7027 164.397 18.9156C163.774 19.9258 162.449 18.7729 161.664 18.4439C153.7 15.1049 147.24 21.3445 148.369 29.4377C149.461 37.2696 157.356 40.2117 163.744 35.859C164.628 35.5093 165.323 37.5285 165.357 38.1107C165.417 39.1175 163.352 39.9931 162.539 40.298C160.576 41.032 158.211 41.169 156.124 41.0136C140.894 39.8838 140.241 15.7101 156.388 14.3559H156.385Z" fill="white"/>
<path d="M57.2636 21.9483C57.7618 21.3316 60.14 21.999 60.4599 21.4939C60.8695 20.8461 60.262 17.361 60.7107 16.8823C61.0455 16.5257 63.4951 16.5636 64.0808 16.6177C64.4225 16.6488 64.9195 16.788 65.03 17.1642C65.2843 18.0341 64.9115 20.0223 65.0484 21.0578C65.0841 21.3293 65.1704 21.472 65.4016 21.625C67.3599 21.9035 69.6346 21.4593 71.5572 21.6826C71.9864 21.732 72.2499 21.8701 72.3086 22.3119C72.3592 22.6939 72.3477 25.1274 72.243 25.3644C72.1947 25.4737 72.0508 25.575 71.9553 25.6521L65.3993 25.7694C65.1853 25.9305 65.0611 26.1859 65.0519 26.4575C65.1922 28.9139 64.1417 34.7888 66.3785 36.4123C67.2253 37.0267 68.2643 36.8691 69.2216 36.6102C70.1271 36.3651 71.6838 35.1156 72.3304 36.2144C72.5582 36.6021 73.1853 38.5869 73.1071 38.9988C73.0231 39.4417 71.8829 39.9423 71.4617 40.116C67.3622 41.8027 61.1284 41.3414 60.5819 35.8819C60.2758 32.8236 60.8223 29.3799 60.5174 26.2814C60.2919 25.0584 57.7779 26.2181 57.2222 25.4346C57.0312 25.1654 57.0427 22.2268 57.2647 21.9506L57.2636 21.9483Z" fill="white"/>
<path d="M188.251 24.7042C187.762 24.282 186.57 24.9125 186.096 24.5006C185.793 24.2371 185.592 22.9979 185.68 22.5998C185.978 21.2422 187.918 22.0706 188.401 21.2893C188.655 20.8786 188.664 19.537 188.796 18.9226C189.78 14.3249 194.511 13.088 198.482 14.876C200.159 15.6308 200.075 16.3453 198.959 17.6961C197.919 18.9548 197.76 18.0182 196.755 17.5223C195.614 16.9585 192.645 16.8964 192.133 18.3496C191.936 18.9111 191.758 21.2375 192.239 21.5781C193.165 22.2339 197.095 20.599 197.031 23.2373C196.978 25.4855 193.74 24.4131 192.365 24.6778C192.107 24.7273 191.995 24.901 191.896 25.13L191.849 40.1554C191.847 40.4396 191.719 40.611 191.438 40.6651C191.107 40.7284 189.242 40.7295 188.913 40.6651C188.628 40.6099 188.5 40.3832 188.417 40.1255C188.106 35.2896 188.745 30.097 188.397 25.3025C188.385 25.1357 188.372 24.8089 188.249 24.7019L188.251 24.7042Z" fill="white"/>
<path d="M140.679 21.5939C140.276 21.5007 137.447 21.4915 137.025 21.5721C136.815 21.6112 136.554 21.862 136.456 22.0392C136.059 22.7537 135.876 24.7891 135.642 25.7119C135.101 27.8416 134.398 30.1577 133.631 32.2149C133.437 32.7338 132.589 35.0166 132.368 35.2939C132.05 35.6966 131.564 35.3951 131.436 34.9798L126.779 21.9172C126.533 21.5882 126.025 21.4835 125.636 21.449C125.101 21.4018 122.893 21.3834 122.538 21.5824C122.232 21.7539 122.113 22.0714 122.129 22.4143C122.164 23.1346 122.64 24.6188 122.845 25.3908C124.196 30.4753 126.45 35.2536 129.02 39.8157C129.045 39.9963 129.042 40.1781 129.002 40.3564C128.894 40.8305 126.232 43.2363 125.686 43.83C125.192 44.3662 124.165 45.3177 124.188 46.015C124.218 46.8986 124.855 47.1276 125.33 47.5441C125.33 47.5441 125.334 47.5476 125.339 47.5533C125.354 47.5683 125.387 47.5993 125.435 47.6419L125.44 47.6465C125.686 47.8617 126.33 48.3438 127.179 48.3748C127.251 48.3783 127.325 48.3783 127.4 48.3725C127.404 48.3725 127.406 48.3725 127.408 48.3725C127.599 48.3679 127.829 48.3495 127.99 48.2632C128.487 47.994 129.897 46.3671 130.35 45.8481C136.102 39.2519 139.914 30.993 141.223 22.313C141.221 21.9587 141.029 21.6745 140.679 21.5939Z" fill="white"/>
<path d="M16.8187 18.2735L16.4989 18.1182L7.64517 23.3591C7.59799 23.3729 7.55082 23.4016 7.50365 23.4442C7.48754 23.4592 7.47143 23.4741 7.45532 23.4902C6.78683 24.115 6.34386 24.7789 6.06197 25.437C6.06197 25.437 6.06082 25.4382 6.06082 25.4393C5.86292 25.9007 5.74441 26.3586 5.68228 26.7993V26.8016C5.59829 27.3953 5.6167 27.9568 5.68228 28.4492C5.68228 28.4504 5.68228 28.4515 5.68228 28.4527C5.81575 29.4606 6.14711 30.1762 6.19774 30.2809C6.20234 30.2901 6.20464 30.2947 6.20464 30.2947C6.34846 30.5732 6.49229 30.8516 6.67063 31.1082C10.1937 36.2018 15.0917 31.4557 19.373 30.4294C19.3857 31.4442 19.3592 32.4636 19.3719 33.4796C19.3742 33.674 19.2982 33.9904 19.4892 34.1112L19.7078 33.6648C19.9644 28.3744 20.0852 22.7308 16.8176 18.2735H16.8187Z" fill="#253D8E"/>
<path d="M19.4896 34.1112C19.3388 29.2154 20.2133 25.4933 18.0157 20.8001C17.5784 19.867 16.8812 19.0616 16.498 18.1181C19.6748 16.2381 22.3695 14.0128 26.3401 14.3166C29.1061 14.5283 30.7215 15.7836 31.1944 18.5519C31.1783 24.0873 31.7156 30.1612 31.3463 35.6679C31.0724 39.7559 28.0384 42.1353 23.9722 41.3069C20.211 40.5406 19.5931 37.4271 19.4907 34.11L19.4896 34.1112Z" fill="#3FB3E7"/>
</svg>
