<svg width="26" height="28" viewBox="0 0 26 28" fill="none" xmlns="http://www.w3.org/2000/svg">
<path d="M11.1928 3.98492L10.8729 3.82959L2.01919 9.07048C1.97202 9.08429 1.92484 9.11305 1.87767 9.15562C1.86156 9.17058 1.84545 9.18554 1.82934 9.20165C1.16086 9.82641 0.717885 10.4903 0.435993 11.1484C0.435993 11.1484 0.434842 11.1496 0.434842 11.1507C0.236943 11.6121 0.118433 12.07 0.0563016 12.5107V12.513C-0.0276907 13.1067 -0.00928145 13.6682 0.0563016 14.1606C0.0563016 14.1618 0.0563016 14.1629 0.0563016 14.1641C0.189769 15.172 0.521136 15.8877 0.571761 15.9924C0.576363 16.0016 0.578665 16.0062 0.578665 16.0062C0.722487 16.2846 0.866309 16.5631 1.04465 16.8196C4.56772 21.9132 9.46574 17.1671 13.747 16.1408C13.7597 17.1556 13.7332 18.175 13.7459 19.191C13.7482 19.3854 13.6723 19.7018 13.8633 19.8226L14.0819 19.3762C14.3384 14.0859 14.4593 8.44226 11.1916 3.98492H11.1928Z" fill="#253D8E"/>
<path d="M13.8636 19.8226C13.7129 14.9269 14.5873 11.2047 12.3897 6.51153C11.9525 5.57841 11.2552 4.77301 10.8721 3.82953C14.0488 1.94949 16.7435 -0.275734 20.7141 0.0280194C23.4801 0.239726 25.0955 1.49501 25.5684 4.2633C25.5523 9.79874 26.0896 15.8726 25.7203 21.3793C25.4465 25.4673 22.4124 27.8467 18.3462 27.0183C14.585 26.252 13.9671 23.1386 13.8647 19.8214L13.8636 19.8226Z" fill="#3FB3E7"/>
</svg>
