<svg width="222" height="63" viewBox="0 0 222 63" fill="none" xmlns="http://www.w3.org/2000/svg">
<path d="M215.952 29.3938C215.931 29.0648 215.891 28.7415 215.84 28.4354C215.787 28.1167 215.724 27.8175 215.658 27.5518C215.564 27.1617 215.467 26.843 215.402 26.6405C215.362 26.5208 215.335 26.4415 215.323 26.4138C215.322 26.4104 215.321 26.4058 215.32 26.4023C213.562 22.5824 210.049 20.6161 205.841 21.2385C195.585 22.755 195.281 39.0472 205.282 40.7535C207.671 41.1608 212.703 40.956 214.15 38.6364C214.635 37.8586 214.542 36.8381 213.673 36.3894C212.512 35.7876 211.91 36.7069 210.911 37.1234C209.169 37.8494 206.579 37.9645 204.865 37.1453C203.197 36.3491 200.255 33.1091 203.209 32.0678C205.978 32.0068 208.752 32.0517 211.523 32.0402C211.648 32.039 211.929 32.0471 212.287 32.0563C213.424 32.0885 215.33 32.1449 215.435 32.0402C215.437 32.0379 215.439 32.0333 215.442 32.0275C215.599 31.7847 215.714 31.5155 215.795 31.2279C215.881 30.9276 215.931 30.6088 215.953 30.2844C215.972 29.9898 215.97 29.6895 215.952 29.3938ZM211.811 29.1637H201.973C201.843 25.9007 205.028 23.7065 208.099 24.3601C209.372 24.6304 210.876 25.6844 211.47 26.858C211.612 27.1387 212.31 29.1637 211.811 29.1637Z" fill="#454546"/>
<path d="M118.046 14.8885C117.965 14.5939 117.789 14.2706 117.459 14.2085C116.842 14.0946 114.702 14.1429 114.005 14.2004C113.364 14.2545 113.311 14.3074 113.258 14.9483C113.111 16.7006 113.456 18.759 113.265 20.4792C113.246 20.6563 113.12 21.0844 113.003 21.1937C112.654 21.5204 111.998 21.2259 111.599 21.219C105.044 21.1085 99.6687 23.0346 99.335 30.4811C98.8794 40.6649 107.847 42.4311 115.957 40.0839C116.885 39.8158 118.121 39.6374 118.099 38.4293L118.046 14.8885ZM112.12 36.822C111.066 37.074 108.624 36.8956 107.595 36.4998C102.351 34.4829 103.201 26.1469 108.748 25.3956C109.366 25.3127 111.592 25.2656 112.146 25.391C112.549 25.4819 113.156 26.2044 113.236 26.6002L113.252 35.424C113.173 36.0051 112.701 36.6839 112.12 36.822Z" fill="#454546"/>
<path d="M36.9037 34.7256C38.0003 33.7327 39.1451 35.0927 40.1576 35.592C42.1297 36.5666 44.8117 37.1476 46.9368 36.4158C50.0882 35.3297 50.2999 31.8273 47.1646 30.541C42.7429 28.7277 36.5862 28.7518 36.1754 22.4305C35.6128 13.7598 45.2006 13.3295 51.3056 15.4695C52.44 15.8665 54.1647 16.3796 53.6562 17.9387C53.5308 18.323 52.8163 19.6243 52.562 19.9499C51.5012 21.303 50.5496 20.0695 49.4842 19.5921C47.6398 18.7659 45.0499 18.3966 43.1031 19.0053C40.9365 19.683 39.7583 22.2706 42.0963 23.6432C44.0212 24.772 47.4362 25.246 49.6763 26.3034C53.6757 28.1903 55.0254 31.5765 53.7206 35.8382C51.7267 42.3494 42.7211 41.7292 37.7069 39.5385C36.554 39.0346 35.1859 38.4926 35.5104 36.9555C35.5725 36.6609 36.6656 34.9419 36.9037 34.7256Z" fill="#454546"/>
<path d="M77.5653 21.4825C77.9703 21.3801 80.2864 21.3904 80.7512 21.4618C81.3519 21.5538 81.5739 21.8564 81.6268 22.4271C81.9432 25.8593 81.3564 29.7816 81.6165 33.2529C81.8685 36.6172 84.3813 37.166 87.3153 36.8715C88.551 36.7472 89.5681 35.7623 89.6797 34.5185C90.0203 30.7147 89.3219 26.3402 89.6694 22.5421C89.7258 21.9323 90.0169 21.5262 90.6497 21.4514C91.2422 21.3812 93.0682 21.3709 93.6377 21.4606C94.0151 21.5204 94.3016 21.8115 94.4558 22.1383V38.8344C94.2625 39.466 93.1062 39.7076 92.524 39.894C86.9437 41.6878 77.5365 42.5012 76.9049 34.5116C76.5942 30.587 77.1338 26.2804 76.9014 22.3155C76.8738 21.96 77.242 21.5653 77.5653 21.4836V21.4825Z" fill="#454546"/>
<path d="M183.223 27.7197C182.782 22.7884 179.132 20.7841 174.451 21.143C173.223 21.2374 168.695 22.2464 168.205 23.412C167.919 24.0931 168.393 25.674 169.177 25.8869C170.054 26.1239 171.213 25.124 172.143 24.8191C173.991 24.2116 177.123 23.9562 178.619 25.4197C179.314 26.0986 180.482 28.4469 179.481 29.1649C178.833 29.6286 178.165 29.1672 177.492 29.0786C173.387 28.5401 167.438 29.158 166.996 34.4C166.5 40.2944 172.652 41.3484 177.176 40.8985C178.296 40.7869 182.169 40.062 182.93 39.4039C183.271 39.1105 183.308 38.2349 183.338 37.7401C183.516 34.8062 183.483 30.6342 183.223 27.7197ZM178.442 37.907C176.198 37.5687 172.296 38.5444 170.998 36.1477C170.044 34.3862 171.322 32.3382 173.18 32.0701C174.477 31.8814 177.326 31.9872 178.663 32.1644C179.496 32.2749 179.89 32.8927 179.889 33.7085C179.889 33.98 179.764 34.232 179.762 34.5082C179.747 35.768 180.178 37.7056 178.442 37.907Z" fill="#454546"/>
<path d="M156.385 14.3558C158.421 14.1855 160.594 14.3408 162.504 15.0714C163.202 15.3384 164.999 16.077 165.023 16.9066C165.03 17.1287 164.528 18.7027 164.397 18.9155C163.774 19.9257 162.449 18.7728 161.664 18.4438C153.7 15.1048 147.24 21.3444 148.369 29.4376C149.461 37.2696 157.356 40.2116 163.744 35.8589C164.628 35.5092 165.323 37.5284 165.357 38.1106C165.417 39.1174 163.352 39.993 162.539 40.2979C160.576 41.0319 158.211 41.1689 156.124 41.0135C140.894 39.8837 140.241 15.71 156.388 14.3558H156.385Z" fill="#454546"/>
<path d="M57.2636 21.9484C57.7618 21.3317 60.14 21.9991 60.4599 21.494C60.8695 20.8462 60.262 17.3611 60.7107 16.8824C61.0455 16.5257 63.4951 16.5637 64.0808 16.6178C64.4225 16.6489 64.9195 16.7881 65.03 17.1643C65.2843 18.0342 64.9115 20.0224 65.0484 21.0579C65.0841 21.3294 65.1704 21.4721 65.4016 21.6251C67.3599 21.9036 69.6346 21.4594 71.5572 21.6826C71.9864 21.7321 72.2499 21.8702 72.3086 22.312C72.3592 22.694 72.3477 25.1275 72.243 25.3645C72.1947 25.4738 72.0508 25.5751 71.9553 25.6521L65.3993 25.7695C65.1853 25.9306 65.0611 26.186 65.0519 26.4576C65.1922 28.914 64.1417 34.7889 66.3785 36.4124C67.2253 37.0268 68.2643 36.8691 69.2216 36.6103C70.1271 36.3652 71.6838 35.1157 72.3304 36.2145C72.5582 36.6022 73.1853 38.587 73.1071 38.9989C73.0231 39.4418 71.8829 39.9423 71.4617 40.1161C67.3622 41.8028 61.1284 41.3414 60.5819 35.8819C60.2758 32.8237 60.8223 29.38 60.5174 26.2815C60.2919 25.0584 57.7779 26.2182 57.2222 25.4347C57.0312 25.1655 57.0427 22.2269 57.2647 21.9507L57.2636 21.9484Z" fill="#454546"/>
<path d="M188.251 24.7041C187.762 24.2818 186.57 24.9123 186.096 24.5004C185.793 24.2369 185.592 22.9978 185.68 22.5997C185.978 21.242 187.918 22.0704 188.401 21.2892C188.655 20.8784 188.664 19.5368 188.796 18.9224C189.78 14.3247 194.511 13.0878 198.482 14.8758C200.159 15.6306 200.075 16.3451 198.959 17.6959C197.919 18.9546 197.76 18.0181 196.755 17.5222C195.614 16.9584 192.645 16.8962 192.133 18.3494C191.936 18.9109 191.758 21.2374 192.239 21.578C193.165 22.2338 197.095 20.5988 197.031 23.2371C196.978 25.4853 193.74 24.413 192.365 24.6776C192.107 24.7271 191.995 24.9008 191.896 25.1298L191.849 40.1552C191.847 40.4394 191.719 40.6108 191.438 40.6649C191.107 40.7282 189.242 40.7293 188.913 40.6649C188.628 40.6097 188.5 40.383 188.417 40.1253C188.106 35.2894 188.745 30.0968 188.397 25.3024C188.385 25.1355 188.372 24.8088 188.249 24.7018L188.251 24.7041Z" fill="#454546"/>
<path d="M140.679 21.5941C140.276 21.5009 137.447 21.4917 137.025 21.5722C136.815 21.6113 136.554 21.8621 136.456 22.0393C136.059 22.7538 135.876 24.7892 135.642 25.712C135.101 27.8417 134.398 30.1578 133.631 32.2151C133.437 32.734 132.589 35.0167 132.368 35.294C132.05 35.6967 131.564 35.3953 131.436 34.9799L126.779 21.9174C126.533 21.5883 126.025 21.4836 125.636 21.4491C125.101 21.4019 122.893 21.3835 122.538 21.5826C122.232 21.754 122.113 22.0716 122.129 22.4144C122.164 23.1347 122.64 24.6189 122.845 25.391C124.196 30.4754 126.45 35.2537 129.02 39.8158C129.045 39.9964 129.042 40.1782 129.002 40.3566C128.894 40.8306 126.232 43.2365 125.686 43.8302C125.192 44.3663 124.165 45.3179 124.188 46.0151C124.218 46.8988 124.855 47.1277 125.33 47.5442C125.33 47.5442 125.334 47.5477 125.339 47.5534C125.354 47.5684 125.387 47.5995 125.435 47.642L125.44 47.6466C125.686 47.8618 126.33 48.3439 127.179 48.3749C127.251 48.3784 127.325 48.3784 127.4 48.3726C127.404 48.3726 127.406 48.3726 127.408 48.3726C127.599 48.368 127.829 48.3496 127.99 48.2633C128.487 47.9941 129.897 46.3672 130.35 45.8483C136.102 39.252 139.914 30.9931 141.223 22.3132C141.221 21.9588 141.029 21.6746 140.679 21.5941Z" fill="#454546"/>
<path d="M16.8187 18.2735L16.4989 18.1182L7.64517 23.359C7.59799 23.3729 7.55082 23.4016 7.50365 23.4442C7.48754 23.4591 7.47143 23.4741 7.45532 23.4902C6.78683 24.115 6.34386 24.7789 6.06197 25.437C6.06197 25.437 6.06082 25.4381 6.06082 25.4393C5.86292 25.9007 5.74441 26.3586 5.68228 26.7993V26.8016C5.59829 27.3953 5.6167 27.9568 5.68228 28.4492C5.68228 28.4504 5.68228 28.4515 5.68228 28.4527C5.81575 29.4606 6.14711 30.1762 6.19774 30.2809C6.20234 30.2901 6.20464 30.2947 6.20464 30.2947C6.34846 30.5732 6.49229 30.8516 6.67063 31.1082C10.1937 36.2018 15.0917 31.4557 19.373 30.4294C19.3857 31.4442 19.3592 32.4636 19.3719 33.4795C19.3742 33.674 19.2982 33.9904 19.4892 34.1112L19.7078 33.6648C19.9644 28.3744 20.0852 22.7308 16.8176 18.2735H16.8187Z" fill="#253D8E"/>
<path d="M19.4896 34.1112C19.3388 29.2155 20.2133 25.4934 18.0157 20.8002C17.5784 19.867 16.8812 19.0616 16.498 18.1182C19.6748 16.2381 22.3695 14.0129 26.3401 14.3166C29.1061 14.5284 30.7215 15.7836 31.1944 18.5519C31.1783 24.0874 31.7156 30.1613 31.3463 35.6679C31.0724 39.756 28.0384 42.1354 23.9722 41.3069C20.211 40.5407 19.5931 37.4272 19.4907 34.1101L19.4896 34.1112Z" fill="#3FB3E7"/>
</svg>
